<mxfile host="app.diagrams.net" modified="2023-11-13T10:28:14.476Z" agent="Mozilla/5.0 (iPad; CPU OS 17_1 like Mac OS X) AppleWebKit/605.1.15 (KHTML, like Gecko) CriOS/119.0.6045.109 Mobile/15E148 Safari/604.1" version="22.1.0" etag="kUe8N-b5yqsCE_HAMdB8" type="github">
  <diagram name="Page-1" id="ToiG1LPAgjaijTry_S4_">
    <mxGraphModel>
      <root>
        <mxCell id="0" />
        <mxCell id="1" parent="0" />
      </root>
    </mxGraphModel>
  </diagram>
</mxfile>
